# xmcd CD database file
#
# Track frame offsets:
#	150
#	15739
#	37933
#	64571
#	93321
#	120373
#	137033
#	142737
#	156794
#	171528
#	193121
#	220883
#	238989
#
# Disc length: 3594 seconds
#
# Revision: 0
# Processed by: cddbd v1.5.1PL2 Copyright (c) Steve Scherf et al.
# Submitted via: CDex 1.51
#
DISCID=b00e080d
DTITLE=Frieze of Life - Nuclear Frog Pond
DYEAR=2006
DGENRE=Jazz
TTITLE0=Moose knuckles
TTITLE1=&(and)
TTITLE2=Desire
TTITLE3=Preliminary Account
TTITLE4=Consolation
TTITLE5=yo, han
TTITLE6=Dialogue
TTITLE7=Hitler's Cafe
TTITLE8=Code Name 6
TTITLE9=Epona
TTITLE10=Melodia na Neblina
TTITLE11=other serious issues...
TTITLE12=Claude et Eric
EXTD=YEAR: 2006
EXTT0=
EXTT1=
EXTT2=
EXTT3=
EXTT4=
EXTT5=
EXTT6=
EXTT7=
EXTT8=
EXTT9=
EXTT10=
EXTT11=
EXTT12=
PLAYORDER=
